<?xml version="1.0"?><svg width="793.7007874015749" height="1122.5196850393702" xmlns="http://www.w3.org/2000/svg">
 <title>Black Tea Leaf</title>

 <g>
  <title>Layer 1</title>
  <g id="layer1">
   <path fill="#FFFFFF" stroke-width="1px" id="path12384" d="m-745.169861,-611.573853l0,0"/>
   <path fill="#FFFFFF" stroke-width="1px" id="path12382" d="m-745.878845,-533.23468l0,0"/>
   <path fill="#FFFFFF" stroke-width="1px" id="path12376" d="m-688.301819,-611.573853l0,0"/>
   <path fill="#FFFFFF" stroke-width="1px" id="path12374" d="m-688.048584,-533.23468l0,0"/>
   <path fill="#FFFFFF" stroke-width="1px" id="path12366" d="m-507.974731,-611.573853l0,0"/>
   <path fill="#FFFFFF" stroke-width="1px" id="path12364" d="m-509.139435,-533.23468l0,0"/>
   <path fill="#FFFFFF" stroke-width="1px" id="path12356" d="m-326.432312,-611.573853l0,0"/>
   <path fill="#FFFFFF" stroke-width="1px" id="path12354" d="m-326.634857,-533.23468l0,0"/>
   <path fill="#FFFFFF" fill-rule="evenodd" stroke-width="1px" id="path1383" d="m159.237793,737.644409c136.089111,-12.90564 209.554199,-83.110474 326.022308,-305.616577c0,0 -154.048004,311.911987 -309.263397,289.34613l-16.758911,16.270447z"/>
   <path fill="#FFFFFF" fill-rule="evenodd" stroke-linecap="square" stroke-miterlimit="4" id="path1381" d="m542.082825,238.330185c-38.324036,103.091721 -114.039612,178.409256 -170.682831,234.399307c-28.321594,27.995056 -53.242188,54.892395 -67.718689,87.625c-14.476593,32.732605 -18.188995,71.157532 -4.718811,120.9375l10.781311,3.8125c0,0 -1.564514,-6.726501 -1.805511,-7.654297c13.976593,2.504517 67.822906,7.136902 120.993011,-38.470703c61.62439,-52.859558 120.329681,-164.987 112.937469,-400.656235l0.21405,0.006927zm-9.21405,28.555557c1.918335,214.385864 -53.631683,316.532898 -110.062469,364.9375c-54.260101,46.542542 -107.213898,44.296631 -115.531311,43.65625c-11.957703,-46.472229 -8.303589,-81.263184 5,-111.34375c13.628998,-30.816223 37.585602,-56.910004 65.718811,-84.71875c51.903992,-51.305603 117.729584,-108.510162 154.874969,-212.53125z"/>
  </g>
 </g>
</svg>