<svg id="Capa_1" enable-background="new 0 0 512 512" height="512" viewBox="0 0 512 512" width="512" xmlns="http://www.w3.org/2000/svg"><g><path d="m429.5 443.499h15.001v15h-15.001z"/><path d="m370.695 398.499c11.135-12.909 20.244-27.319 27.164-43.025 2.777-6.302 5.147-12.727 7.134-19.251 26.616-1.991 44.697-18.193 53.784-48.243 7.91-26.158 8.122-58.975 8.309-87.929.152-23.423.326-49.719 5.852-58.036h11.727v-15h-63.393v7.5c0 19.47-5.64 36.193-15.473 45.88-5.974 5.885-13.501 9.162-22.393 9.793-6.767-10.12-14.621-19.503-23.487-28.087l-6.98-27.921c-3.238-12.949-11.565-20.68-22.275-20.68h-44.686c4.719-6.272 7.521-14.065 7.521-22.5 0-20.678-16.822-37.5-37.5-37.5s-37.5 16.822-37.5 37.5c0 8.436 2.802 16.229 7.521 22.5h-44.685c-10.711 0-19.039 7.731-22.276 20.681l-5.283 21.134c-46.99-19.637-102.261-.607-126.713 45.215-25.959 48.647-7.502 109.344 41.146 135.303 13.185 7.036 27.831 11.027 42.664 11.684 1.022 2.671 2.109 5.324 3.268 7.956 6.92 15.706 16.029 30.117 27.164 43.025h-141.305v40.607l19.394 19.393h395.106v-15h-388.894l-10.606-10.605v-19.394h482v19.394l-10.606 10.606h-26.894v15h33.105l19.395-19.393v-40.607zm45.632-207.418c11.306-11.137 18.311-28.744 19.693-49.065h20.725c-4.366 13.556-4.504 33.976-4.658 57.939-.181 27.938-.385 59.603-7.667 83.684-6.641 21.96-18.032 33.922-35.468 36.991 2.305-11.308 3.475-22.875 3.475-34.63 0-24.161-4.901-47.536-14.567-69.474-1.864-4.23-3.893-8.363-6.071-12.401 9.41-1.961 17.755-6.361 24.538-13.044zm-182.827-100.08c0-12.407 10.094-22.5 22.5-22.5s22.5 10.093 22.5 22.5-10.093 22.5-22.5 22.5-22.5-10.094-22.5-22.5zm-52.165 37.5h149.329c4.692 0 6.853 5.838 7.723 9.318l5.17 20.681h-175.115l5.169-20.68c.87-3.48 3.031-9.319 7.724-9.319zm-106.065 194.1c-41.35-22.065-57.039-73.658-34.974-115.008 20.427-38.279 66.154-54.543 105.639-39.244-3.661 3.927-7.133 8.018-10.406 12.256-31.674-9.635-66.139 4.326-81.999 34.051-8.805 16.5-10.659 35.437-5.22 53.323s17.521 32.585 34.021 41.39c6.302 3.363 12.978 5.703 19.905 7.016.939 5.291 2.132 10.525 3.566 15.699-10.629-1.205-21.023-4.409-30.532-9.483zm39.303-36.601c0-11.556 1.259-23.087 3.742-34.273l-14.644-3.251c-2.72 12.251-4.099 24.876-4.099 37.524 0 4.865.209 9.697.605 14.493-3.713-1.064-7.321-2.511-10.785-4.359-12.965-6.918-22.458-18.468-26.732-32.52-4.273-14.053-2.816-28.932 4.102-41.897 11.658-21.846 36.101-32.856 59.573-27.994-7.835 12.349-14.102 25.668-18.569 39.613l14.285 4.576c7.775-24.27 21.511-46.48 39.805-64.411h188.287c30.514 29.864 47.282 69.699 47.282 112.5 0 42.804-16.778 82.633-47.297 112.499h-32.158c17.645-30.52 21.033-74.745 17.176-99.872l-1.221-7.952-7.847 1.774c-14.942 3.379-34.36 11.742-50.677 21.826-3.963 2.45-8.289 5.343-12.693 8.633-20.846-23.244-49.722-29.657-71.242-34.426-1.467-.325-2.9-.643-4.292-.958l-7.847-1.774-1.221 7.952c-2.492 16.229-5.043 40.489 1.53 63.688 4.813 16.987 13.773 30.73 26.741 41.108h-44.507c-30.519-29.866-47.297-69.695-47.297-112.499zm109.351 106.397c-34.253-20.27-35.822-57.971-32.093-88.466 19.634 4.4 42.708 10.37 59.31 28.547-8.046 7.422-15.531 16.205-20.67 26.234-5.703 11.131-7.876 22.406-6.547 33.685zm19.896-26.844c13.357-26.066 50.844-47.864 77.407-56.243 1.8 26.294-4.025 66.44-21.215 89.188h-59.504c-3.46-11.04-2.366-21.864 3.312-32.945z"/><path d="m345.665 218.501h15v15h-15z"/><path d="m330.665 188.502h15v15h-15z"/></g></svg>